<?xml version="1.0" encoding="UTF-8" standalone="no"?>

<svg
   width="31.097385mm"
   height="55.208782mm"
   viewBox="0 0 31.097385 55.208782"
   version="1.1"
   id="svg1"
   xml:space="preserve"
   inkscape:version="1.3 (0e150ed, 2023-07-21)"
   sodipodi:docname="secbutler.svg"
   xmlns:inkscape="http://www.inkscape.org/namespaces/inkscape"
   xmlns:sodipodi="http://sodipodi.sourceforge.net/DTD/sodipodi-0.dtd"
   xmlns="http://www.w3.org/2000/svg"
   xmlns:svg="http://www.w3.org/2000/svg"><sodipodi:namedview
     id="namedview1"
     pagecolor="#ffffff"
     bordercolor="#000000"
     borderopacity="0.25"
     inkscape:showpageshadow="2"
     inkscape:pageopacity="0.0"
     inkscape:pagecheckerboard="0"
     inkscape:deskcolor="#d1d1d1"
     inkscape:document-units="mm"
     showguides="true"
     inkscape:zoom="1.3734958"
     inkscape:cx="98.65338"
     inkscape:cy="222.06111"
     inkscape:window-width="1920"
     inkscape:window-height="927"
     inkscape:window-x="0"
     inkscape:window-y="0"
     inkscape:window-maximized="1"
     inkscape:current-layer="layer1"><sodipodi:guide
       position="10.056053,263.7501"
       orientation="0,-1"
       id="guide11"
       inkscape:locked="false" /><sodipodi:guide
       position="15.623743,261.79489"
       orientation="1,0"
       id="guide12"
       inkscape:locked="false" /></sodipodi:namedview><defs
     id="defs1" /><g
     inkscape:label="Livello 1"
     inkscape:groupmode="layer"
     id="layer1"
     transform="translate(-91.242427,-123.65101)"><g
       id="g5"
       style="display:inline;fill:#e9706d;fill-opacity:1"
       inkscape:label="g1"><path
         style="fill:#e9706d;fill-opacity:1;stroke-width:0.264583"
         d="m 94.243426,163.96995 c 0,5.82571 7.132844,11.00994 12.739614,10.98322 5.54571,-0.0264 12.49677,-5.21498 12.49677,-10.98322 0,-3.94793 0,-11.84379 0,-11.84379 0,0.55795 2.86677,0.61888 2.85999,-0.76633 -0.0108,-2.20654 0,-6.61971 0,-6.61971 0,-1.04773 -1.90123,-0.95331 -2.99513,-0.95331 H 94.236817 c 0,0 0.0105,0.0315 0,0.0315 -1.471803,0 -2.99439,0.13938 -2.99439,1.21677 v 6.27343 c 0,1.31064 2.961116,1.32477 2.961116,0.89679 0,0 0.03988,7.84308 0.03988,11.76465 z"
         id="path1"
         sodipodi:nodetypes="ssssssscssscs" /><path
         style="fill:#e9706d;fill-opacity:1;stroke-width:0.264583"
         d="m 94.21179,143.31216 c 0,-5.52609 7.07902,-10.77151 12.6051,-10.768 5.50915,0.003 12.60497,5.24204 12.55285,10.75095 -0.0802,8.47485 -25.15795,8.3693 -25.15795,0.0171 z"
         id="path2"
         sodipodi:nodetypes="ssss" /><path
         style="fill:#e9706d;fill-opacity:1;stroke-width:0.264583"
         d="m 102.54071,133.43101 c 0,-1.68523 2.39351,-3.52664 4.22955,-3.52848 1.83085,-0.002 4.22467,1.90317 4.22467,3.51004 0,2.81808 -8.45422,2.83652 -8.45422,0.0184 z"
         id="path3"
         sodipodi:nodetypes="ssss" /><rect
         style="fill:#e9706d;fill-opacity:1;stroke-width:0.264583"
         id="rect3"
         width="1.7556893"
         height="2.5162933"
         x="105.90675"
         y="127.57825" /><circle
         style="fill:#e9706d;fill-opacity:1;stroke-width:0.264583"
         id="path4"
         cx="106.80704"
         cy="125.81841"
         r="2.1673987" /><ellipse
         style="fill:#cdcbcc;fill-opacity:1;stroke-width:0.264583"
         id="path5"
         cx="106.92706"
         cy="177.26619"
         rx="8.167201"
         ry="1.5936065" /></g><g
       id="g7"
       inkscape:label="g2"
       style="display:inline"><path
         style="display:inline;fill:#fceae3;fill-opacity:1;stroke-width:0.264583"
         d="m 102.1431,170.45283 c 0.047,0.28261 3.07138,1.37812 4.70432,1.36712 1.56074,-0.0105 4.36256,-0.93516 4.4783,-1.36712 1.32856,-4.95832 5.01411,-14.56053 5.01411,-14.56053 0,0 0.53,-2.14195 0,-1.83596 -3.31551,1.91421 -6.03938,2.47095 -9.22173,2.47095 -3.3975,0 -7.05834,-1.02901 -9.845213,-2.63801 -0.614203,-0.35461 0,2.12766 0,2.12766 0,0 4.036863,9.42631 4.870213,14.43589 z"
         id="path6"
         sodipodi:nodetypes="ssscssscs" /><path
         style="fill:#fceae3;fill-opacity:1;stroke-width:0.264583"
         d="m 97.403432,150.3373 c 0,-4.45399 0,-6.57392 0,-6.57392 0,-4.09508 5.183668,-8.03964 9.278728,-8.05186 4.14547,-0.0124 9.44142,3.94927 9.44142,8.09475 0,0 0,4.36595 0,6.54893 0,0.56489 -5.67569,3.18727 -8.80194,3.24254 -3.47958,0.0615 -9.918208,-2.63744 -9.918208,-3.26044 z"
         id="path7"
         sodipodi:nodetypes="sssssss" /></g><g
       id="g12"
       inkscape:label="g3"><circle
         style="fill:#eb7470;fill-opacity:1;stroke-width:0.264583"
         id="path8"
         cx="106.89453"
         cy="164.39069"
         r="0.84919226" /><circle
         style="fill:#eb7470;fill-opacity:1;stroke-width:0.264583"
         id="path8-8"
         cx="106.90423"
         cy="168.32304"
         r="0.84919226" /><circle
         style="fill:#eb7470;fill-opacity:1;stroke-width:0.264583"
         id="path9"
         cx="106.89994"
         cy="159.69125"
         r="1.3944743" /><circle
         style="fill:#eb7470;fill-opacity:1;stroke-width:0.264583"
         id="path10"
         cx="102.49874"
         cy="145.39265"
         r="4.2711539" /><circle
         style="fill:#eb7470;fill-opacity:1;stroke-width:0.264583"
         id="path10-5"
         cx="111.19092"
         cy="145.33057"
         r="4.2711539" /><path
         style="fill:#eb7470;fill-opacity:1;stroke-width:0.264583"
         d="m 111.21979,162.32269 v -5.36991 l -4.34439,2.50822 z"
         id="path11" /><path
         style="fill:#eb7470;fill-opacity:1;stroke-width:0.264583"
         d="m 102.51843,156.86007 v 5.36991 l 4.34439,-2.50822 z"
         id="path11-8" /><path
         style="fill:#eb7470;fill-opacity:1;stroke-width:0.264583"
         d="m 104.98205,142.12656 c 1.36208,0.63387 2.54417,0.59611 3.57666,0 1.89677,-1.0951 1.87486,7.47884 0,6.43604 -1.18872,-0.66117 -2.24072,-0.67621 -3.48212,0 -1.88418,1.02635 -0.95282,-6.83546 -0.0945,-6.43604 z"
         id="path12"
         sodipodi:nodetypes="sssss" /></g><g
       id="g8"
       inkscape:label="g4"
       style="display:inline"><rect
         style="fill:#fceae3;fill-opacity:1;stroke-width:0.264583"
         id="rect6"
         width="2.084352"
         height="3.6506393"
         x="101.46313"
         y="143.59811" /><rect
         style="fill:#fceae3;fill-opacity:1;stroke-width:0.264583"
         id="rect6-6"
         width="2.084352"
         height="3.6506393"
         x="110.0125"
         y="143.52098" /></g></g></svg>
